<svg id="SvgjsSvg1085" width="268.8" height="51.78754556564936" xmlns="http://www.w3.org/2000/svg" version="1.1"
     xmlns:xlink="http://www.w3.org/1999/xlink" xmlns:svgjs="http://svgjs.com/svgjs">
  <defs id="SvgjsDefs1086"></defs>
  <g id="SvgjsG1087" transform="scale(0.3965987352170128)" opacity="1">
    <g id="SvgjsG1088" class="BJw0BAOXX"
       transform="translate(-0.9300082094893356, -1.2348972011384427) scale(1.330489888510405)" light-content="false"
       fill="#424242">
      <path
        d="M47 1.732l37.301 21.536a6 6 0 0 1 3 5.196v43.072a6 6 0 0 1-3 5.196L47 98.268a6 6 0 0 1-6 0L3.699 76.732a6 6 0 0 1-3-5.196V28.464a6 6 0 0 1 3-5.196L41 1.732a6 6 0 0 1 6 0z"></path>
    </g>
    <g id="SvgjsG1089" class="S1gwCr0dQQ"
       transform="translate(25.696291719896514, 33.33001763490727) scale(0.8865348223729229)" light-content="true"
       fill="#ffffff">
      <path
        d="M42 32.3h1.6c.1 0 .2-.1.2-.2V30c0-.1.1-.2.2-.2 1.4-.2 2.6-.7 3.4-1.5.9-.9 1.3-2 1.3-3.5s-.4-2.6-1.3-3.4c-.9-.8-2.2-1.6-4.1-2.3-1-.4-1.7-.8-2-1.2-.4-.4-.6-.9-.6-1.6 0-.7.2-1.2.5-1.6s.9-.6 1.6-.6c.7 0 1.2.3 1.6.8.4.5.6 1.2.6 2 0 .1.1.3.3.3h3c.2 0 .3-.1.3-.3v-.1c0-1.5-.4-2.7-1.2-3.6-.8-1-1.9-1.6-3.2-1.8-.1 0-.2-.1-.2-.2V8.8c0-.1-.1-.2-.2-.2h-1.6c-.1 0-.2.1-.2.2v2.3c0 .1-.1.2-.2.2-1.4.2-2.6.7-3.4 1.6-.9.9-1.3 2-1.3 3.4 0 1.5.4 2.7 1.3 3.5.9.8 2.3 1.6 4.1 2.2.9.4 1.6.8 2 1.2.4.4.6 1 .6 1.6 0 .7-.2 1.2-.6 1.6-.4.4-1 .6-1.7.6-.8 0-1.4-.2-1.9-.7-.5-.5-.7-1.2-.8-2.2 0-.1-.1-.2-.2-.2h-3.2c-.1 0-.2.1-.2.2v.5c.1 1.5.6 2.7 1.5 3.5 1 .9 2.2 1.5 3.7 1.6.1 0 .2.1.2.2V32c-.1.2 0 .3.1.3zm-5.6 18.8l-2.2-.2c-.5 0-.8-.4-.9-.8-.2-1.2-.6-2.3-1.1-3.4-.2-.4-.1-.9.3-1.2l1.7-1.4c.4-.4.5-1 .1-1.4l-2.9-3.4c-.4-.4-1-.5-1.4-.1l-1.7 1.4c-.3.3-.8.3-1.2 0-1-.7-2-1.2-3.1-1.6-.4-.2-.7-.6-.7-1l.2-2.2c0-.5-.4-1-.9-1.1l-4.4-.4c-.5 0-1 .4-1.1.9l-.1 2.2c0 .5-.4.8-.8.9-1.2.2-2.3.6-3.4 1.1-.4.2-.9.1-1.2-.3l-1.4-1.7c-.4-.4-1-.5-1.4-.1l-3.4 2.9c-.4.4-.5 1-.1 1.4l1.4 1.7c.3.3.3.8 0 1.2-.7 1-1.2 2-1.6 3.1-.2.4-.6.7-1 .7L2 48.1c-.5 0-1 .4-1.1.9l-.4 4.4c0 .5.4 1 .9 1.1l2.2.2c.5 0 .8.4.9.8.2 1.2.6 2.3 1.1 3.4.2.4.1.9-.3 1.2l-1.7 1.4c-.4.4-.5 1-.1 1.4l2.9 3.4c.4.4 1 .5 1.4.1L9.4 65c.3-.3.8-.3 1.2 0 1 .7 2 1.2 3.1 1.6.4.2.7.6.7 1l-.2 2.2c0 .5.4 1 .9 1.1l4.4.4c.5 0 1-.4 1.1-.9l.2-2.2c0-.5.4-.8.8-.9 1.2-.2 2.3-.6 3.4-1.1.4-.2.9-.1 1.2.3l1.4 1.7c.4.4 1 .5 1.4.1l3.4-2.9c.4-.4.5-1 .1-1.4l-1.4-1.7c-.3-.3-.3-.8 0-1.2.7-1 1.2-2 1.6-3.1.2-.4.6-.7 1-.7l2.2.2c.5 0 1-.4 1.1-.9l.4-4.4c0-.6-.4-1.1-1-1.1zM18.1 62c-5.1-.5-8.8-5-8.4-10 .4-5.1 4.9-8.8 10-8.4 5.1.4 8.8 4.9 8.4 10-.4 5-4.9 8.8-10 8.4z"></path>
      <path
        d="M42.7.7C31.8.7 22.9 9.6 22.9 20.5s8.9 19.8 19.8 19.8 19.8-8.9 19.8-19.8C62.5 9.5 53.6.7 42.7.7zm0 34.3c-8 0-14.5-6.5-14.5-14.5S34.7 6 42.7 6s14.5 6.5 14.5 14.5S50.7 35 42.7 35zm13.6 6c-8.4 0-15.2 6.8-15.2 15.2 0 8.4 6.8 15.2 15.2 15.2 8.4 0 15.2-6.8 15.2-15.2 0-8.4-6.8-15.2-15.2-15.2zm0 26.3c-6.1 0-11.1-5-11.1-11.1s5-11.1 11.1-11.1 11.1 5 11.1 11.1c.1 6.1-4.9 11.1-11.1 11.1z"></path>
      <path
        d="M60.3 61.9c-.5 0-1-.2-1.4-.5l-4-3.8c-.4-.4-.6-.9-.6-1.4v-6.9c0-1 .7-1.9 1.6-2 1.2-.2 2.3.7 2.3 1.9v5.9c0 .2.1.3.2.4l3.1 3c.8.7.9 2 .2 2.8-.3.4-.8.6-1.4.6z"></path>
    </g>
    <g id="SvgjsG1090" class="text" transform="translate(151.80309052150795, 83.58959923706055)" light-content="false"
       fill="#424242">
      <path
        d="M4.26 -48.6L3.42 0L11.16 0L11.88 -32.58L17.88 0L24.66 0L30.3 -32.34L31.2 0L38.82 0L37.98 -48.6L26.88 -48.6L21.12 -20.34L15.78 -48.6Z M59.79 -2.28C61.93 -0.36 64.9 0.6 68.7 0.6C72.5 0.6 75.48 -0.37 77.64 -2.31C79.8 -4.25 80.88 -7.06 80.88 -10.74L80.88 -23.94C80.88 -27.62 79.8 -30.43 77.64 -32.37C75.48 -34.31 72.5 -35.28 68.7 -35.28C64.9 -35.28 61.93 -34.32 59.79 -32.4C57.65 -30.48 56.58 -27.66 56.58 -23.94L56.58 -10.74C56.58 -7.02 57.65 -4.2 59.79 -2.28ZM70.68 -6.93C70.32 -6.23 69.68 -5.88 68.76 -5.88C67.84 -5.88 67.19 -6.23 66.81 -6.93C66.43 -7.63 66.24 -8.68 66.24 -10.08L66.24 -24.6C66.24 -25.96 66.43 -27 66.81 -27.72C67.19 -28.44 67.84 -28.8 68.76 -28.8C69.68 -28.8 70.32 -28.45 70.68 -27.75C71.04 -27.05 71.22 -26 71.22 -24.6L71.22 -10.08C71.22 -8.68 71.04 -7.63 70.68 -6.93Z M98.28 -34.68L98.28 0L108.06 0L108.06 -27.12C109.3 -27.96 110.32 -28.38 111.12 -28.38C111.84 -28.38 112.35 -28.17 112.65 -27.75C112.95 -27.33 113.1 -26.68 113.1 -25.8L113.1 0L122.82 0L122.82 -27.18C122.82 -29.58 122.27 -31.53 121.17 -33.03C120.07 -34.53 118.48 -35.28 116.4 -35.28C113.56 -35.28 110.78 -33.92 108.06 -31.2L108.06 -34.68Z M143.16 -2.43C145.28 -0.41 148.24 0.6 152.04 0.6C155.68 0.6 158.51 -0.3 160.53 -2.1C162.55 -3.9 163.56 -6.54 163.56 -10.02L163.56 -13.38L154.56 -13.38L154.56 -9.72C154.56 -7.48 153.72 -6.36 152.04 -6.36C150.44 -6.36 149.64 -7.6 149.64 -10.08L149.64 -16.74L163.56 -16.74L163.56 -23.7C163.56 -27.5 162.6 -30.38 160.68 -32.34C158.76 -34.3 155.88 -35.28 152.04 -35.28C148.24 -35.28 145.28 -34.27 143.16 -32.25C141.04 -30.23 139.98 -27.38 139.98 -23.7L139.98 -10.98C139.98 -7.3 141.04 -4.45 143.16 -2.43ZM154.56 -21.3L149.64 -21.3L149.64 -24.24C149.64 -25.76 149.84 -26.82 150.24 -27.42C150.64 -28.02 151.22 -28.32 151.98 -28.32C152.78 -28.32 153.41 -28.05 153.87 -27.51C154.33 -26.97 154.56 -26.06 154.56 -24.78Z M181.86 3.3L181.86 10.08L184.08 10.08C187.36 10.08 190 9.39 192 8.01C194 6.63 195.38 4.24 196.14 0.84L204.12 -34.68L194.88 -34.68L191.58 -14.64L187.2 -34.68L178.02 -34.68L186.18 -5.46C187.02 -2.58 187.44 -0.64 187.44 0.36C187.44 1.48 186.99 2.25 186.09 2.67C185.19 3.09 183.78 3.3 181.86 3.3Z M248.34 -48.6L247.5 0L255.24 0L255.96 -32.58L261.96 0L268.74 0L274.38 -32.34L275.28 0L282.9 0L282.06 -48.6L270.96 -48.6L265.2 -20.34L259.86 -48.6Z M304.17 -0.63C305.39 0.19 306.84 0.6 308.52 0.6C310.24 0.6 311.66 0.08 312.78 -0.96C313.9 -2 314.7 -3.32 315.18 -4.92C315.34 -4.32 315.6 -2.68 315.96 0L324.72 0C324.32 -2.24 324.12 -5.12 324.12 -8.64L324.12 -24.84C324.12 -28 323.22 -30.53 321.42 -32.43C319.62 -34.33 317.02 -35.28 313.62 -35.28C309.58 -35.28 306.54 -34.29 304.5 -32.31C302.46 -30.33 301.36 -27.26 301.2 -23.1L310.32 -22.74L310.56 -25.26C310.6 -26.14 310.78 -26.82 311.1 -27.3C311.42 -27.78 311.96 -28.02 312.72 -28.02C313.48 -28.02 314.01 -27.76 314.31 -27.24C314.61 -26.72 314.76 -25.96 314.76 -24.96L314.76 -21.48C311.76 -20.44 309.31 -19.44 307.41 -18.48C305.51 -17.52 303.88 -16.18 302.52 -14.46C301.16 -12.74 300.48 -10.54 300.48 -7.86C300.48 -6.46 300.79 -5.11 301.41 -3.81C302.03 -2.51 302.95 -1.45 304.17 -0.63ZM314.76 -7.74C313.92 -6.58 313 -6 312 -6C311.16 -6 310.5 -6.34 310.02 -7.02C309.54 -7.7 309.3 -8.62 309.3 -9.78C309.3 -11.42 309.76 -12.81 310.68 -13.95C311.6 -15.09 312.96 -16.18 314.76 -17.22Z M341.94 -34.68L341.94 0L351.72 0L351.72 -27.12C352.96 -27.96 353.98 -28.38 354.78 -28.38C355.5 -28.38 356.01 -28.17 356.31 -27.75C356.61 -27.33 356.76 -26.68 356.76 -25.8L356.76 0L366.48 0L366.48 -27.18C366.48 -29.58 365.93 -31.53 364.83 -33.03C363.73 -34.53 362.14 -35.28 360.06 -35.28C357.22 -35.28 354.44 -33.92 351.72 -31.2L351.72 -34.68Z M387.15 -0.63C388.37 0.19 389.82 0.6 391.5 0.6C393.22 0.6 394.64 0.08 395.76 -0.96C396.88 -2 397.68 -3.32 398.16 -4.92C398.32 -4.32 398.58 -2.68 398.94 0L407.7 0C407.3 -2.24 407.1 -5.12 407.1 -8.64L407.1 -24.84C407.1 -28 406.2 -30.53 404.4 -32.43C402.6 -34.33 400 -35.28 396.6 -35.28C392.56 -35.28 389.52 -34.29 387.48 -32.31C385.44 -30.33 384.34 -27.26 384.18 -23.1L393.3 -22.74L393.54 -25.26C393.58 -26.14 393.76 -26.82 394.08 -27.3C394.4 -27.78 394.94 -28.02 395.7 -28.02C396.46 -28.02 396.99 -27.76 397.29 -27.24C397.59 -26.72 397.74 -25.96 397.74 -24.96L397.74 -21.48C394.74 -20.44 392.29 -19.44 390.39 -18.48C388.49 -17.52 386.86 -16.18 385.5 -14.46C384.14 -12.74 383.46 -10.54 383.46 -7.86C383.46 -6.46 383.77 -5.11 384.39 -3.81C385.01 -2.51 385.93 -1.45 387.15 -0.63ZM397.74 -7.74C396.9 -6.58 395.98 -6 394.98 -6C394.14 -6 393.48 -6.34 393 -7.02C392.52 -7.7 392.28 -8.62 392.28 -9.78C392.28 -11.42 392.74 -12.81 393.66 -13.95C394.58 -15.09 395.94 -16.18 397.74 -17.22Z M426.78 10.23C429.06 11.41 432.2 12 436.2 12C441.4 12 445.17 11.15 447.51 9.45C449.85 7.75 451.02 5.2 451.02 1.8C451.02 -0.8 450.31 -2.88 448.89 -4.44C447.47 -6 445.3 -6.94 442.38 -7.26L433.26 -8.28C432.06 -8.44 431.21 -8.66 430.71 -8.94C430.21 -9.22 429.96 -9.6 429.96 -10.08C429.96 -10.64 430.26 -11.34 430.86 -12.18C432.66 -11.54 434.64 -11.22 436.8 -11.22C440.72 -11.22 443.69 -12.26 445.71 -14.34C447.73 -16.42 448.74 -19.36 448.74 -23.16C448.74 -25.56 448.28 -27.72 447.36 -29.64C448.12 -30.08 449.07 -30.55 450.21 -31.05C451.35 -31.55 452.2 -31.9 452.76 -32.1L450.48 -36.78L449.22 -36.18C447.34 -35.26 445.94 -34.06 445.02 -32.58C443.1 -34.38 440.36 -35.28 436.8 -35.28C432.8 -35.28 429.73 -34.24 427.59 -32.16C425.45 -30.08 424.38 -27.1 424.38 -23.22C424.38 -19.26 425.52 -16.26 427.8 -14.22C426.48 -13.06 425.51 -11.98 424.89 -10.98C424.27 -9.98 423.96 -8.82 423.96 -7.5C423.96 -4.7 425.56 -2.86 428.76 -1.98C425.16 -0.34 423.36 1.96 423.36 4.92C423.36 7.28 424.5 9.05 426.78 10.23ZM438.96 -18.36C438.6 -17.48 437.88 -17.04 436.8 -17.04C435.72 -17.04 435 -17.49 434.64 -18.39C434.28 -19.29 434.1 -20.9 434.1 -23.22C434.1 -25.62 434.28 -27.26 434.64 -28.14C435 -29.02 435.72 -29.46 436.8 -29.46C437.88 -29.46 438.6 -29.01 438.96 -28.11C439.32 -27.21 439.5 -25.58 439.5 -23.22C439.5 -20.86 439.32 -19.24 438.96 -18.36ZM442.65 4.32C441.55 4.72 439.82 4.92 437.46 4.92C435.02 4.92 433.27 4.69 432.21 4.23C431.15 3.77 430.62 3.04 430.62 2.04C430.62 0.92 431.3 -0.16 432.66 -1.2L439.08 -0.54C441.08 -0.34 442.45 -0.05 443.19 0.33C443.93 0.71 444.3 1.32 444.3 2.16C444.3 3.2 443.75 3.92 442.65 4.32Z M469.38 -2.43C471.5 -0.41 474.46 0.6 478.26 0.6C481.9 0.6 484.73 -0.3 486.75 -2.1C488.77 -3.9 489.78 -6.54 489.78 -10.02L489.78 -13.38L480.78 -13.38L480.78 -9.72C480.78 -7.48 479.94 -6.36 478.26 -6.36C476.66 -6.36 475.86 -7.6 475.86 -10.08L475.86 -16.74L489.78 -16.74L489.78 -23.7C489.78 -27.5 488.82 -30.38 486.9 -32.34C484.98 -34.3 482.1 -35.28 478.26 -35.28C474.46 -35.28 471.5 -34.27 469.38 -32.25C467.26 -30.23 466.2 -27.38 466.2 -23.7L466.2 -10.98C466.2 -7.3 467.26 -4.45 469.38 -2.43ZM480.78 -21.3L475.86 -21.3L475.86 -24.24C475.86 -25.76 476.06 -26.82 476.46 -27.42C476.86 -28.02 477.44 -28.32 478.2 -28.32C479 -28.32 479.63 -28.05 480.09 -27.51C480.55 -26.97 480.78 -26.06 480.78 -24.78Z M507.24 -34.68L507.24 0L517.02 0L517.02 -22.56C518.74 -24.8 520.66 -25.92 522.78 -25.92C523.7 -25.92 524.76 -25.68 525.96 -25.2L525.96 -34.92C525.52 -35.04 525.02 -35.1 524.46 -35.1C522.94 -35.1 521.62 -34.6 520.5 -33.6C519.38 -32.6 518.22 -31.04 517.02 -28.92L517.02 -34.68Z"></path>
    </g>
  </g>
</svg>